<svg xmlns="http://www.w3.org/2000/svg" width="18" height="17"><path fill="#6366F1" fill-rule="nonzero" d="M4.185 15.852c-1.241 0-2.207-.275-2.9-.825-.691-.55-1.097-1.303-1.216-2.26a9.675 9.675 0 0 1 .107-2.976C.367 8.763.677 7.7 1.106 6.6c.43-1.148 1.098-2.773 2.005-4.877l.501.573c1.289.335 1.945 1.028 1.969 2.08.023 1.053-.263 2.38-.86 3.982-.596 1.602-.894 2.785-.894 3.55 0 .335.024.753.071 1.255.048.503.108 1.029.18 1.579.071.55.107.92.107 1.111ZM13.848 17c-1.527-.717-2.47-1.96-2.827-3.73-.358-1.77-.239-3.55.358-5.344a23.032 23.032 0 0 1 2.362-5.02C14.719 1.35 15.686.382 16.64 0c.095.143.239.323.43.538.19.215.345.418.465.61.119.191.226.406.322.645.095.24.143.49.143.753s-.072.538-.215.825c0 .192-.155.586-.465 1.184-.31.598-.668 1.255-1.074 1.972-.405.718-.656 1.196-.751 1.435-.191.574-.62 2.893-1.289 6.958L13.848 17Z"/></svg>